<?xml version="1.0" encoding="UTF-8"?>
<svg xmlns="http://www.w3.org/2000/svg" xmlns:xlink="http://www.w3.org/1999/xlink" width="236pt" height="300pt" viewBox="0 0 236 300" version="1.1">
<g id="surface7">
<path style=" stroke:none;fill-rule:nonzero;fill:rgb(45.098039%,45.098039%,44.705882%);fill-opacity:1;" d="M 3.1875 8.453125 L 91.347656 8.453125 L 47.035156 87.4375 Z M 3.1875 8.453125 "/>
<path style=" stroke:none;fill-rule:nonzero;fill:rgb(15.294118%,22.745098%,33.333333%);fill-opacity:1;" d="M 180.714844 8.632812 L 230.355469 8.632812 L 119.042969 216.410156 L 92.074219 167.835938 Z M 180.714844 8.632812 "/>
<path style="fill-rule:nonzero;fill:rgb(15.294118%,22.745098%,33.333333%);fill-opacity:1;stroke-width:1;stroke-linecap:butt;stroke-linejoin:miter;stroke:rgb(15.294118%,22.745098%,33.333333%);stroke-opacity:1;stroke-miterlimit:10;" d="M 59.074566 674.580508 L 59.329002 674.580508 L 88.879916 587.405742 L 98.775655 587.405742 L 63.954284 687.75957 L 54.185762 687.75957 L 19.500695 587.405742 L 29.523653 587.405742 Z M 59.074566 674.580508 " transform="matrix(0.429872,0,0,0.429185,0,0)"/>
<path style="fill-rule:nonzero;fill:rgb(15.294118%,22.745098%,33.333333%);fill-opacity:1;stroke-width:1;stroke-linecap:butt;stroke-linejoin:miter;stroke:rgb(15.294118%,22.745098%,33.333333%);stroke-opacity:1;stroke-miterlimit:10;" d="M 130.116707 678.694414 L 178.813923 678.694414 L 178.813923 687.75957 L 120.866145 687.75957 L 120.866145 587.405742 L 177.269134 587.405742 L 177.269134 596.470898 L 130.116707 596.470898 L 130.116707 631.065938 L 174.188642 631.065938 L 174.188642 639.99457 L 130.116707 639.99457 Z M 130.116707 678.694414 " transform="matrix(0.429872,0,0,0.429185,0,0)"/>
<path style="fill-rule:nonzero;fill:rgb(15.294118%,22.745098%,33.333333%);fill-opacity:1;stroke-width:1;stroke-linecap:butt;stroke-linejoin:miter;stroke:rgb(15.294118%,22.745098%,33.333333%);stroke-opacity:1;stroke-miterlimit:10;" d="M 283.141734 671.604297 C 281.596945 674.152734 279.73411 676.564648 277.553231 678.830938 C 275.363265 681.097227 272.83708 683.081367 269.974676 684.792461 C 267.103185 686.485352 263.931823 687.832383 260.46059 688.824453 C 256.998444 689.816523 253.209166 690.317109 249.092757 690.317109 C 242.241161 690.317109 235.898438 688.988281 230.08276 686.348828 C 224.257995 683.700273 219.241972 680.041445 215.04378 675.363242 C 210.845587 670.685039 207.574268 665.133086 205.211649 658.707383 C 202.858117 652.28168 201.685894 645.23707 201.685894 637.582656 C 201.685894 629.928242 202.885378 622.892734 205.284345 616.45793 C 207.674225 610.032227 211.000066 604.480273 215.234607 599.80207 C 219.478234 595.132969 224.485169 591.465039 230.273586 588.816484 C 236.052916 586.177031 242.322944 584.848203 249.092757 584.848203 C 252.436772 584.848203 255.708091 585.230469 258.924887 585.985898 C 262.132597 586.741328 265.158567 587.806211 267.984623 589.171445 C 270.810679 590.545781 273.373212 592.202266 275.690397 594.140898 C 277.998494 596.07043 279.934024 598.273008 281.469727 600.73043 L 273.763953 606.965 C 272.818906 605.354023 271.555813 603.752148 269.974676 602.141172 C 268.384451 600.539297 266.521617 599.119453 264.386173 597.890742 C 262.241641 596.662031 259.906283 595.669961 257.380098 594.914531 C 254.853913 594.159102 252.127814 593.776836 249.219975 593.776836 C 243.313427 593.776836 238.024795 594.960039 233.354078 597.326445 C 228.683362 599.692852 224.721431 602.878398 221.468287 606.892187 C 218.215142 610.915078 215.734392 615.565977 214.016949 620.853984 C 212.299507 626.151094 211.445329 631.730352 211.445329 637.582656 C 211.445329 643.444062 212.326768 649.02332 214.080558 654.311328 C 215.834349 659.608438 218.34236 664.259336 221.595505 668.273125 C 224.857736 672.286914 228.81058 675.481562 233.481296 677.838867 C 238.152013 680.205273 243.39521 681.388477 249.219975 681.388477 C 254.444998 681.388477 259.415585 680.205273 264.12265 677.838867 C 268.838801 675.481562 272.773471 671.704414 275.944832 666.49832 Z M 283.141734 671.604297 " transform="matrix(0.429872,0,0,0.429185,0,0)"/>
<path style="fill-rule:nonzero;fill:rgb(15.294118%,22.745098%,33.333333%);fill-opacity:1;stroke-width:1;stroke-linecap:butt;stroke-linejoin:miter;stroke:rgb(15.294118%,22.745098%,33.333333%);stroke-opacity:1;stroke-miterlimit:10;" d="M 337.100321 687.75957 L 327.849758 687.75957 L 327.849758 596.470898 L 297.408319 596.470898 L 297.408319 587.405742 L 367.559934 587.405742 L 367.559934 596.470898 L 337.100321 596.470898 Z M 337.100321 687.75957 " transform="matrix(0.429872,0,0,0.429185,0,0)"/>
<path style="fill-rule:nonzero;fill:rgb(15.294118%,22.745098%,33.333333%);fill-opacity:1;stroke-width:1;stroke-linecap:butt;stroke-linejoin:miter;stroke:rgb(15.294118%,22.745098%,33.333333%);stroke-opacity:1;stroke-miterlimit:10;" d="M 400.064122 687.75957 L 390.804472 687.75957 L 390.804472 587.405742 L 400.064122 587.405742 Z M 400.064122 687.75957 " transform="matrix(0.429872,0,0,0.429185,0,0)"/>
<path style=" stroke:none;fill-rule:nonzero;fill:rgb(15.294118%,22.745098%,33.333333%);fill-opacity:1;" d="M 220.964844 273.640625 C 220.964844 271.128906 220.59375 268.734375 219.859375 266.460938 C 219.121094 264.191406 218.054688 262.195312 216.65625 260.46875 C 215.257812 258.746094 213.554688 257.378906 211.546875 256.363281 C 209.539062 255.347656 207.285156 254.84375 204.78125 254.84375 C 202.277344 254.84375 200.023438 255.347656 198.015625 256.363281 C 196.007812 257.378906 194.304688 258.746094 192.90625 260.46875 C 191.507812 262.195312 190.441406 264.191406 189.703125 266.460938 C 188.964844 268.734375 188.597656 271.128906 188.597656 273.640625 C 188.597656 276.15625 188.964844 278.550781 189.703125 280.820312 C 190.441406 283.089844 191.507812 285.078125 192.90625 286.78125 C 194.304688 288.484375 196.007812 289.84375 198.015625 290.859375 C 200.023438 291.871094 202.277344 292.378906 204.78125 292.378906 C 207.285156 292.378906 209.539062 291.871094 211.546875 290.859375 C 213.554688 289.84375 215.257812 288.484375 216.65625 286.78125 C 218.054688 285.078125 219.121094 283.089844 219.859375 280.820312 C 220.59375 278.550781 220.964844 276.15625 220.964844 273.640625 M 225.160156 273.640625 C 225.160156 276.925781 224.644531 279.949219 223.613281 282.707031 C 222.585938 285.464844 221.15625 287.847656 219.335938 289.855469 C 217.511719 291.863281 215.359375 293.433594 212.871094 294.570312 C 210.386719 295.703125 207.691406 296.273438 204.78125 296.273438 C 201.871094 296.273438 199.175781 295.703125 196.691406 294.570312 C 194.203125 293.433594 192.050781 291.863281 190.226562 289.855469 C 188.40625 287.847656 186.976562 285.464844 185.949219 282.707031 C 184.917969 279.949219 184.402344 276.925781 184.402344 273.640625 C 184.402344 270.355469 184.917969 267.335938 185.949219 264.574219 C 186.976562 261.816406 188.40625 259.433594 190.226562 257.429688 C 192.050781 255.421875 194.203125 253.847656 196.691406 252.710938 C 199.175781 251.578125 201.871094 251.007812 204.78125 251.007812 C 207.691406 251.007812 210.386719 251.578125 212.871094 252.710938 C 215.359375 253.847656 217.511719 255.421875 219.335938 257.429688 C 221.15625 259.433594 222.585938 261.816406 223.613281 264.574219 C 224.644531 267.335938 225.160156 270.355469 225.160156 273.640625 "/>
<path style="fill:none;stroke-width:1;stroke-linecap:butt;stroke-linejoin:miter;stroke:rgb(15.294118%,22.745098%,33.333333%);stroke-opacity:1;stroke-miterlimit:10;" d="M 514.024149 637.582656 C 514.024149 631.730352 513.160885 626.151094 511.452529 620.853984 C 509.735087 615.565977 507.254337 610.915078 504.001192 606.892187 C 500.748047 602.878398 496.786116 599.692852 492.1154 597.326445 C 487.444684 594.960039 482.201486 593.785938 476.376721 593.785938 C 470.551956 593.785938 465.308759 594.960039 460.638043 597.326445 C 455.967327 599.692852 452.005396 602.878398 448.752251 606.892187 C 445.499106 610.915078 443.018356 615.565977 441.300914 620.853984 C 439.583471 626.151094 438.729294 631.730352 438.729294 637.582656 C 438.729294 643.444062 439.583471 649.02332 441.300914 654.311328 C 443.018356 659.599336 445.499106 664.232031 448.752251 668.200312 C 452.005396 672.168594 455.967327 675.335938 460.638043 677.702344 C 465.308759 680.059648 470.551956 681.242852 476.376721 681.242852 C 482.201486 681.242852 487.444684 680.059648 492.1154 677.702344 C 496.786116 675.335938 500.748047 672.168594 504.001192 668.200312 C 507.254337 664.232031 509.735087 659.599336 511.452529 654.311328 C 513.160885 649.02332 514.024149 643.444062 514.024149 637.582656 Z M 523.783584 637.582656 C 523.783584 645.23707 522.5841 652.28168 520.185133 658.707383 C 517.795253 665.133086 514.469412 670.685039 510.234872 675.363242 C 505.991244 680.041445 500.984309 683.700273 495.195892 686.348828 C 489.416562 688.988281 483.146534 690.317109 476.376721 690.317109 C 469.606909 690.317109 463.336881 688.988281 457.557551 686.348828 C 451.769134 683.700273 446.762199 680.041445 442.518571 675.363242 C 438.284031 670.685039 434.95819 665.133086 432.56831 658.707383 C 430.169343 652.28168 428.969859 645.23707 428.969859 637.582656 C 428.969859 629.928242 430.169343 622.892734 432.56831 616.45793 C 434.95819 610.032227 438.284031 604.480273 442.518571 599.811172 C 446.762199 595.132969 451.769134 591.465039 457.557551 588.816484 C 463.336881 586.177031 469.606909 584.848203 476.376721 584.848203 C 483.146534 584.848203 489.416562 586.177031 495.195892 588.816484 C 500.984309 591.465039 505.991244 595.132969 510.234872 599.811172 C 514.469412 604.480273 517.795253 610.032227 520.185133 616.45793 C 522.5841 622.892734 523.783584 629.928242 523.783584 637.582656 Z M 523.783584 637.582656 " transform="matrix(0.429872,0,0,0.429185,0,0)"/>
</g>
</svg>
